<svg xmlns="http://www.w3.org/2000/svg" width="1100" height="660" viewBox="0 0 1100 660"><defs><radialGradient id="bg"><stop stop-color="#203c40"/><stop offset="1" stop-color="#101a23"/></radialGradient><linearGradient id="glow" x2="0" y2="1"><stop stop-color="#91a9ef" stop-opacity=".4"/><stop offset="1" stop-color="#91a9ef" stop-opacity="0"/></linearGradient><pattern id="grid" width="44" height="44" patternUnits="userSpaceOnUse"><path d="M44 0H0v44" fill="none" stroke="#ffffff" stroke-opacity=".035"/></pattern></defs><rect width="1100" height="660" fill="url(#bg)"/><rect width="1100" height="660" fill="url(#grid)"/><circle cx="865" cy="247" r="240" fill="none" stroke="#91a9ef" stroke-opacity=".1"/><circle cx="865" cy="247" r="282" fill="none" stroke="#91a9ef" stroke-opacity=".08"/><g font-family="Arial, sans-serif"><text x="56" y="72" fill="#91a9ef" font-size="13" letter-spacing="4">CHARANJIT SINGH / SELECTED WORK</text><text x="56" y="187" fill="#91a9ef" font-size="15" letter-spacing="3">IDENTITY &amp; VISUAL DESIGN</text><text x="52" y="253" fill="#f4f1e9" font-size="43" font-weight="700" letter-spacing="-1.5">RNZ Group Design</text><text x="52" y="307" fill="#f4f1e9" font-size="43" font-weight="700" letter-spacing="-1.5">Portfolio</text><path d="M56 435h74" stroke="#91a9ef" stroke-width="3"/><text x="56" y="471" fill="#a8babb" font-size="15">Illustrator / Photoshop / Packaging</text><g transform="translate(620 70)"><rect x="-8" y="34" width="222" height="292" rx="5" transform="rotate(-13 100 180)" fill="#91a9ef"/><rect x="100" y="88" width="248" height="310" rx="5" transform="rotate(9 220 230)" fill="#eae5d9"/><circle cx="216" cy="213" r="65" fill="none" stroke="#172b32" stroke-width="2"/><path d="M168 242l49-89 49 89z" fill="#172b32"/><circle cx="217" cy="205" r="22" fill="#91a9ef"/><path d="M147 316h136m-136 12h83" stroke="#172b32" stroke-width="3"/><g fill="#152932"><circle cx="35" cy="122" r="9"/><circle cx="61" cy="122" r="9"/><circle cx="87" cy="122" r="9"/></g><text x="20" y="265" fill="#152932" font-size="16" letter-spacing="3">FORM / IDENTITY</text></g><path d="M56 553h988" stroke="#48615f" stroke-opacity=".5"/><text x="56" y="603" fill="#97afad" font-size="11" letter-spacing="3">ILLUSTRATED PROJECT COVER</text><text x="1010" y="603" fill="#91a9ef" font-size="18" text-anchor="end">03 / 2024</text></g></svg>